<?xml version="1.0" encoding="UTF-8"?>
<svg width="294px" height="294px" viewBox="0 0 294 294" version="1.1" xmlns="http://www.w3.org/2000/svg" xmlns:xlink="http://www.w3.org/1999/xlink">
    <!-- Generator: Sketch 43.2 (39069) - http://www.bohemiancoding.com/sketch -->
    <title>Artboard</title>
    <desc>Created with Sketch.</desc>
    <defs>
        <path d="M28.3883121,151.210398 L89.9833825,44.5246068 L201.244509,108.761248 L139.649438,215.44704 L28.3883121,151.210398 Z M98.8235455,77.504115 L98.8235455,79.8633007 L100.865149,79.8633007 L100.865149,77.504115 L98.8235455,77.504115 Z M157.336037,141.740756 L157.336037,144.099942 L159.904853,144.099942 L159.904853,141.740756 L157.336037,141.740756 Z M119.895896,123.095888 L119.895896,125.206812 L122.464712,125.206812 L122.464712,123.095888 L119.895896,123.095888 Z M64.6731011,135.611358 L64.6731011,137.722283 L66.714705,137.722283 L66.714705,135.611358 L64.6731011,135.611358 Z M109.55339,170.710222 L109.55339,172.821146 L111.594994,172.821146 L111.594994,170.710222 L109.55339,170.710222 Z" id="path-1"></path>
        <path d="M93.7088115,245.782619 L155.303882,139.096828 L266.565008,203.333469 L204.969938,310.01926 L93.7088115,245.782619 Z M164.144045,172.076336 L164.144045,174.435522 L166.185649,174.435522 L166.185649,172.076336 L164.144045,172.076336 Z M222.656536,236.312977 L222.656536,238.672163 L225.225352,238.672163 L225.225352,236.312977 L222.656536,236.312977 Z M185.216395,217.668109 L185.216395,219.779033 L187.785211,219.779033 L187.785211,217.668109 L185.216395,217.668109 Z M129.9936,230.183579 L129.9936,232.294504 L132.035204,232.294504 L132.035204,230.183579 L129.9936,230.183579 Z M174.873889,265.282443 L174.873889,267.393367 L176.915493,267.393367 L176.915493,265.282443 L174.873889,265.282443 Z" id="path-2"></path>
        <path d="M140.708735,142.393604 L202.303805,35.7078129 L313.564931,99.9444542 L251.969861,206.630246 L140.708735,142.393604 Z M211.143968,68.6873211 L211.143968,71.0465068 L213.185572,71.0465068 L213.185572,68.6873211 L211.143968,68.6873211 Z M269.656459,132.923962 L269.656459,135.283148 L272.225275,135.283148 L272.225275,132.923962 L269.656459,132.923962 Z M232.216319,114.279094 L232.216319,116.390018 L234.785134,116.390018 L234.785134,114.279094 L232.216319,114.279094 Z M176.993524,126.794564 L176.993524,128.905489 L179.035128,128.905489 L179.035128,126.794564 L176.993524,126.794564 Z M221.873812,161.893428 L221.873812,164.004352 L223.915416,164.004352 L223.915416,161.893428 L221.873812,161.893428 Z" id="path-3"></path>
    </defs>
    <g id="Page-1" stroke="none" stroke-width="1" fill="none" fill-rule="evenodd">
        <g id="Artboard">
            <g id="Group" transform="translate(-28.000000, -30.000000)">
                <g id="Combined-Shape-Copy" transform="translate(114.816410, 129.985823) rotate(-25.000000) translate(-114.816410, -129.985823) ">
                    <use fill="#000000" fill-rule="evenodd" xlink:href="#path-1"></use>
                    <path stroke="#FFFFFF" stroke-width="3" d="M30.4373502,150.66136 L90.5324206,46.5736449 L199.195471,109.310286 L139.1004,213.398001 L30.4373502,150.66136 Z M97.3235455,77.504115 L97.3235455,79.8633007 L97.3235455,81.3633007 L98.8235455,81.3633007 L100.865149,81.3633007 L102.365149,81.3633007 L102.365149,79.8633007 L102.365149,77.504115 L102.365149,76.004115 L100.865149,76.004115 L98.8235455,76.004115 L97.3235455,76.004115 L97.3235455,77.504115 Z M155.836037,141.740756 L155.836037,144.099942 L155.836037,145.599942 L157.336037,145.599942 L159.904853,145.599942 L161.404853,145.599942 L161.404853,144.099942 L161.404853,141.740756 L161.404853,140.240756 L159.904853,140.240756 L157.336037,140.240756 L155.836037,140.240756 L155.836037,141.740756 Z M118.395896,123.095888 L118.395896,125.206812 L118.395896,126.706812 L119.895896,126.706812 L122.464712,126.706812 L123.964712,126.706812 L123.964712,125.206812 L123.964712,123.095888 L123.964712,121.595888 L122.464712,121.595888 L119.895896,121.595888 L118.395896,121.595888 L118.395896,123.095888 Z M63.1731011,135.611358 L63.1731011,137.722283 L63.1731011,139.222283 L64.6731011,139.222283 L66.714705,139.222283 L68.214705,139.222283 L68.214705,137.722283 L68.214705,135.611358 L68.214705,134.111358 L66.714705,134.111358 L64.6731011,134.111358 L63.1731011,134.111358 L63.1731011,135.611358 Z M108.05339,170.710222 L108.05339,172.821146 L108.05339,174.321146 L109.55339,174.321146 L111.594994,174.321146 L113.094994,174.321146 L113.094994,172.821146 L113.094994,170.710222 L113.094994,169.210222 L111.594994,169.210222 L109.55339,169.210222 L108.05339,169.210222 L108.05339,170.710222 Z"></path>
                </g>
                <g id="Combined-Shape" transform="translate(180.136910, 224.558044) rotate(10.000000) translate(-180.136910, -224.558044) ">
                    <use fill="#000000" fill-rule="evenodd" xlink:href="#path-2"></use>
                    <path stroke="#FFFFFF" stroke-width="3" d="M95.7578496,245.233581 L155.85292,141.145866 L264.51597,203.882507 L204.4209,307.970222 L95.7578496,245.233581 Z M162.644045,172.076336 L162.644045,174.435522 L162.644045,175.935522 L164.144045,175.935522 L166.185649,175.935522 L167.685649,175.935522 L167.685649,174.435522 L167.685649,172.076336 L167.685649,170.576336 L166.185649,170.576336 L164.144045,170.576336 L162.644045,170.576336 L162.644045,172.076336 Z M221.156536,236.312977 L221.156536,238.672163 L221.156536,240.172163 L222.656536,240.172163 L225.225352,240.172163 L226.725352,240.172163 L226.725352,238.672163 L226.725352,236.312977 L226.725352,234.812977 L225.225352,234.812977 L222.656536,234.812977 L221.156536,234.812977 L221.156536,236.312977 Z M183.716395,217.668109 L183.716395,219.779033 L183.716395,221.279033 L185.216395,221.279033 L187.785211,221.279033 L189.285211,221.279033 L189.285211,219.779033 L189.285211,217.668109 L189.285211,216.168109 L187.785211,216.168109 L185.216395,216.168109 L183.716395,216.168109 L183.716395,217.668109 Z M128.4936,230.183579 L128.4936,232.294504 L128.4936,233.794504 L129.9936,233.794504 L132.035204,233.794504 L133.535204,233.794504 L133.535204,232.294504 L133.535204,230.183579 L133.535204,228.683579 L132.035204,228.683579 L129.9936,228.683579 L128.4936,228.683579 L128.4936,230.183579 Z M173.373889,265.282443 L173.373889,267.393367 L173.373889,268.893367 L174.873889,268.893367 L176.915493,268.893367 L178.415493,268.893367 L178.415493,267.393367 L178.415493,265.282443 L178.415493,263.782443 L176.915493,263.782443 L174.873889,263.782443 L173.373889,263.782443 L173.373889,265.282443 Z"></path>
                </g>
                <g id="Combined-Shape-Copy-2" transform="translate(227.136833, 121.169029) rotate(40.000000) translate(-227.136833, -121.169029) ">
                    <use fill="#000000" fill-rule="evenodd" xlink:href="#path-3"></use>
                    <path stroke="#FFFFFF" stroke-width="3" d="M142.757773,141.844566 L202.852843,37.7568511 L311.515893,100.493492 L251.420823,204.581208 L142.757773,141.844566 Z M209.643968,68.6873211 L209.643968,71.0465068 L209.643968,72.5465068 L211.143968,72.5465068 L213.185572,72.5465068 L214.685572,72.5465068 L214.685572,71.0465068 L214.685572,68.6873211 L214.685572,67.1873211 L213.185572,67.1873211 L211.143968,67.1873211 L209.643968,67.1873211 L209.643968,68.6873211 Z M268.156459,132.923962 L268.156459,135.283148 L268.156459,136.783148 L269.656459,136.783148 L272.225275,136.783148 L273.725275,136.783148 L273.725275,135.283148 L273.725275,132.923962 L273.725275,131.423962 L272.225275,131.423962 L269.656459,131.423962 L268.156459,131.423962 L268.156459,132.923962 Z M230.716319,114.279094 L230.716319,116.390018 L230.716319,117.890018 L232.216319,117.890018 L234.785134,117.890018 L236.285134,117.890018 L236.285134,116.390018 L236.285134,114.279094 L236.285134,112.779094 L234.785134,112.779094 L232.216319,112.779094 L230.716319,112.779094 L230.716319,114.279094 Z M175.493524,126.794564 L175.493524,128.905489 L175.493524,130.405489 L176.993524,130.405489 L179.035128,130.405489 L180.535128,130.405489 L180.535128,128.905489 L180.535128,126.794564 L180.535128,125.294564 L179.035128,125.294564 L176.993524,125.294564 L175.493524,125.294564 L175.493524,126.794564 Z M220.373812,161.893428 L220.373812,164.004352 L220.373812,165.504352 L221.873812,165.504352 L223.915416,165.504352 L225.415416,165.504352 L225.415416,164.004352 L225.415416,161.893428 L225.415416,160.393428 L223.915416,160.393428 L221.873812,160.393428 L220.373812,160.393428 L220.373812,161.893428 Z"></path>
                </g>
            </g>
        </g>
    </g>
</svg>